ffmpeg started on 2026-01-15 at 19:11:33
Report written to "D:\Convert\FFMetrics\reports\ssim_report-6.txt"
Log level: 32
Command line:
ffmpeg -hide_banner -nostdin -r 24000/1001 -i "F:\\Convert\\files\\[DC] Make Heroine ga Oosugiru - 07_Telegram_HEVC(70).mkv" -r 24000/1001 -i "F:\\Convert\\files\\[DC] Make Heroine ga Oosugiru - 07_Telegram.mp4" -lavfi "[0:v]settb=AVTB,setpts=PTS-STARTPTS,format=pix_fmts=yuv420p10le,fps=24000/1001,scale=1920:1080:flags=lanczos:param0=3:out_range=limited:out_color_matrix=bt709:out_chroma_loc=left,setsar=1/1,setdar=(1920/1080)*(1/1),colorspace=format=yuv420p10:range=tv:primaries=bt709:trc=bt709:space=bt709:fast=0[main];[1:v]settb=AVTB,setpts=PTS-STARTPTS,format=pix_fmts=yuv420p,fps=24000/1001,scale=1920:1080:flags=lanczos:param0=3:out_range=limited:out_color_matrix=bt709:out_chroma_loc=left,setsar=1.000,setdar=1.778,colorspace=format=yuv420p:range=tv:primaries=bt709:trc=bt709:space=bt709:fast=0[ref];[main][ref]ssim=eof_action=endall:stats_file='D\\:/Convert/FFMetrics/logs/ssim_logfile-6.txt'" -f null -
Input #0, matroska,webm, from 'F:\Convert\files\[DC] Make Heroine ga Oosugiru - 07_Telegram_HEVC(70).mkv':
  Metadata:
    COMPATIBLE_BRANDS: isomiso2avc1mp41
    MAJOR_BRAND     : isom
    MINOR_VERSION   : 512
    ENCODER         : Lavf61.7.100
  Duration: 00:24:06.79, start: -0.021000, bitrate: 981 kb/s
  Stream #0:0: Video: hevc (Main 10), yuv420p10le(tv, bt709, progressive), 1920x1080 [SAR 1:1 DAR 16:9], 23.98 fps, 23.98 tbr, 1k tbn (default)
      Metadata:
        HANDLER_NAME    : VideoHandler
        VENDOR_ID       : [0][0][0][0]
        ENCODER         : Lavc61.19.100 libx265
        BPS             : 784108
        DURATION        : 00:24:06.569708333
        NUMBER_OF_FRAMES: 34683
        NUMBER_OF_BYTES : 141783342
        _STATISTICS_WRITING_APP: mkvpropedit v94.0 ('Initiate') 64-bit
        _STATISTICS_WRITING_DATE_UTC: 2026-01-15 15:50:17
        _STATISTICS_TAGS: BPS DURATION NUMBER_OF_FRAMES NUMBER_OF_BYTES
  Stream #0:1: Audio: aac (LC), 48000 Hz, stereo, fltp (default)
      Metadata:
        HANDLER_NAME    : SoundHandler
        VENDOR_ID       : [0][0][0][0]
        ENCODER         : Lavc61.19.100 aac
        BPS             : 193194
        DURATION        : 00:24:06.784000000
        NUMBER_OF_FRAMES: 67819
        NUMBER_OF_BYTES : 34938755
        _STATISTICS_WRITING_APP: mkvpropedit v94.0 ('Initiate') 64-bit
        _STATISTICS_WRITING_DATE_UTC: 2026-01-15 15:50:17
        _STATISTICS_TAGS: BPS DURATION NUMBER_OF_FRAMES NUMBER_OF_BYTES
Input #1, mov,mp4,m4a,3gp,3g2,mj2, from 'F:\Convert\files\[DC] Make Heroine ga Oosugiru - 07_Telegram.mp4':
  Metadata:
    major_brand     : isom
    minor_version   : 512
    compatible_brands: isomiso2avc1mp41
    encoder         : Lavf60.16.100
  Duration: 00:24:06.74, start: 0.000000, bitrate: 3764 kb/s
  Stream #1:0[0x1](und): Video: h264 (High) (avc1 / 0x31637661), yuv420p(tv, bt709, progressive), 1920x1080 [SAR 1:1 DAR 16:9], 3616 kb/s, 23.98 fps, 23.98 tbr, 24k tbn (default)
      Metadata:
        handler_name    : VideoHandler
        vendor_id       : [0][0][0][0]
        encoder         : Lavc60.31.102 h264_qsv
  Stream #1:1[0x2](und): Audio: aac (HE-AACv2) (mp4a / 0x6134706D), 48000 Hz, stereo, fltp, 144 kb/s (default)
      Metadata:
        handler_name    : SoundHandler
        vendor_id       : [0][0][0][0]
Stream mapping:
  Stream #0:0 (hevc) -> settb:default
  Stream #1:0 (h264) -> settb:default
  ssim:default -> Stream #0:0 (wrapped_avframe)
  Stream #0:1 -> #0:1 (aac (native) -> pcm_s16le (native))
Output #0, null, to 'pipe:':
  Metadata:
    COMPATIBLE_BRANDS: isomiso2avc1mp41
    MAJOR_BRAND     : isom
    MINOR_VERSION   : 512
    encoder         : Lavf61.7.100
  Stream #0:0: Video: wrapped_avframe, yuv420p10le(tv, bt709, progressive), 1920x1080 [SAR 1:1 DAR 16:9], q=2-31, 200 kb/s, 23.98 fps, 23.98 tbn
      Metadata:
        encoder         : Lavc61.19.100 wrapped_avframe
  Stream #0:1: Audio: pcm_s16le, 48000 Hz, stereo, s16, 1536 kb/s (default)
      Metadata:
        HANDLER_NAME    : SoundHandler
        VENDOR_ID       : [0][0][0][0]
        _STATISTICS_TAGS: BPS DURATION NUMBER_OF_FRAMES NUMBER_OF_BYTES
        BPS             : 193194
        DURATION        : 00:24:06.784000000
        NUMBER_OF_FRAMES: 67819
        NUMBER_OF_BYTES : 34938755
        _STATISTICS_WRITING_APP: mkvpropedit v94.0 ('Initiate') 64-bit
        _STATISTICS_WRITING_DATE_UTC: 2026-01-15 15:50:17
        encoder         : Lavc61.19.100 pcm_s16le
frame=  143 fps=0.0 q=-0.0 size=N/A time=00:00:05.96 bitrate=N/A speed=11.7x    frame=  337 fps=325 q=-0.0 size=N/A time=00:00:14.05 bitrate=N/A speed=13.6x    frame=  534 fps=345 q=-0.0 size=N/A time=00:00:22.27 bitrate=N/A speed=14.4x    frame=  726 fps=353 q=-0.0 size=N/A time=00:00:30.28 bitrate=N/A speed=14.7x    frame=  911 fps=352 q=-0.0 size=N/A time=00:00:37.99 bitrate=N/A speed=14.7x    frame= 1064 fps=344 q=-0.0 size=N/A time=00:00:44.37 bitrate=N/A speed=14.3x    frame= 1222 fps=339 q=-0.0 size=N/A time=00:00:50.96 bitrate=N/A speed=14.1x    frame= 1390 fps=338 q=-0.0 size=N/A time=00:00:57.97 bitrate=N/A speed=14.1x    frame= 1544 fps=332 q=-0.0 size=N/A time=00:01:04.39 bitrate=N/A speed=13.9x    frame= 1680 fps=326 q=-0.0 size=N/A time=00:01:10.07 bitrate=N/A speed=13.6x    frame= 1855 fps=327 q=-0.0 size=N/A time=00:01:17.36 bitrate=N/A speed=13.6x    frame= 2030 fps=327 q=-0.0 size=N/A time=00:01:24.66 bitrate=N/A speed=13.6x    frame= 2138 fps=318 q=-0.0 size=N/A time=00:01:29.17 bitrate=N/A speed=13.3x    frame= 2290 fps=317 q=-0.0 size=N/A time=00:01:35.51 bitrate=N/A speed=13.2x    frame= 2447 fps=316 q=-0.0 size=N/A time=00:01:42.06 bitrate=N/A speed=13.2x    frame= 2583 fps=312 q=-0.0 size=N/A time=00:01:47.73 bitrate=N/A speed=  13x    frame= 2760 fps=314 q=-0.0 size=N/A time=00:01:55.11 bitrate=N/A speed=13.1x    frame= 2933 fps=316 q=-0.0 size=N/A time=00:02:02.33 bitrate=N/A speed=13.2x    frame= 3131 fps=319 q=-0.0 size=N/A time=00:02:10.58 bitrate=N/A speed=13.3x    frame= 3335 fps=323 q=-0.0 size=N/A time=00:02:19.09 bitrate=N/A speed=13.5x    frame= 3543 fps=327 q=-0.0 size=N/A time=00:02:27.77 bitrate=N/A speed=13.6x    frame= 3740 fps=329 q=-0.0 size=N/A time=00:02:35.98 bitrate=N/A speed=13.7x    frame= 3941 fps=332 q=-0.0 size=N/A time=00:02:44.37 bitrate=N/A speed=13.8x    frame= 4147 fps=335 q=-0.0 size=N/A time=00:02:52.96 bitrate=N/A speed=  14x    frame= 4346 fps=337 q=-0.0 size=N/A time=00:03:01.26 bitrate=N/A speed=  14x    frame= 4543 fps=339 q=-0.0 size=N/A time=00:03:09.48 bitrate=N/A speed=14.1x    frame= 4741 fps=340 q=-0.0 size=N/A time=00:03:17.73 bitrate=N/A speed=14.2x    frame= 4950 fps=342 q=-0.0 size=N/A time=00:03:26.45 bitrate=N/A speed=14.3x    frame= 5141 fps=343 q=-0.0 size=N/A time=00:03:34.42 bitrate=N/A speed=14.3x    frame= 5334 fps=345 q=-0.0 size=N/A time=00:03:42.47 bitrate=N/A speed=14.4x    frame= 5539 fps=346 q=-0.0 size=N/A time=00:03:51.02 bitrate=N/A speed=14.4x    frame= 5737 fps=347 q=-0.0 size=N/A time=00:03:59.28 bitrate=N/A speed=14.5x    frame= 5937 fps=349 q=-0.0 size=N/A time=00:04:07.62 bitrate=N/A speed=14.5x    frame= 6128 fps=349 q=-0.0 size=N/A time=00:04:15.58 bitrate=N/A speed=14.6x    frame= 6339 fps=351 q=-0.0 size=N/A time=00:04:24.38 bitrate=N/A speed=14.6x    frame= 6545 fps=352 q=-0.0 size=N/A time=00:04:32.98 bitrate=N/A speed=14.7x    frame= 6740 fps=353 q=-0.0 size=N/A time=00:04:41.11 bitrate=N/A speed=14.7x    frame= 6944 fps=354 q=-0.0 size=N/A time=00:04:49.62 bitrate=N/A speed=14.8x    frame= 7135 fps=354 q=-0.0 size=N/A time=00:04:57.58 bitrate=N/A speed=14.8x    frame= 7324 fps=355 q=-0.0 size=N/A time=00:05:05.47 bitrate=N/A speed=14.8x    frame= 7515 fps=355 q=-0.0 size=N/A time=00:05:13.43 bitrate=N/A speed=14.8x    frame= 7708 fps=356 q=-0.0 size=N/A time=00:05:21.48 bitrate=N/A speed=14.8x    frame= 7908 fps=356 q=-0.0 size=N/A time=00:05:29.82 bitrate=N/A speed=14.9x    frame= 8101 fps=357 q=-0.0 size=N/A time=00:05:37.87 bitrate=N/A speed=14.9x    frame= 8290 fps=357 q=-0.0 size=N/A time=00:05:45.76 bitrate=N/A speed=14.9x    frame= 8490 fps=358 q=-0.0 size=N/A time=00:05:54.10 bitrate=N/A speed=14.9x    frame= 8689 fps=358 q=-0.0 size=N/A time=00:06:02.40 bitrate=N/A speed=14.9x    frame= 8891 fps=359 q=-0.0 size=N/A time=00:06:10.82 bitrate=N/A speed=  15x    frame= 9088 fps=359 q=-0.0 size=N/A time=00:06:19.04 bitrate=N/A speed=  15x    frame= 9286 fps=360 q=-0.0 size=N/A time=00:06:27.30 bitrate=N/A speed=  15x    frame= 9484 fps=360 q=-0.0 size=N/A time=00:06:35.56 bitrate=N/A speed=  15x    frame= 9685 fps=361 q=-0.0 size=N/A time=00:06:43.94 bitrate=N/A speed=  15x    frame= 9881 fps=361 q=-0.0 size=N/A time=00:06:52.12 bitrate=N/A speed=15.1x    frame=10077 fps=362 q=-0.0 size=N/A time=00:07:00.29 bitrate=N/A speed=15.1x    frame=10274 fps=362 q=-0.0 size=N/A time=00:07:08.51 bitrate=N/A speed=15.1x    frame=10476 fps=362 q=-0.0 size=N/A time=00:07:16.93 bitrate=N/A speed=15.1x    frame=10665 fps=362 q=-0.0 size=N/A time=00:07:24.81 bitrate=N/A speed=15.1x    frame=10863 fps=363 q=-0.0 size=N/A time=00:07:33.07 bitrate=N/A speed=15.1x    frame=11062 fps=363 q=-0.0 size=N/A time=00:07:41.37 bitrate=N/A speed=15.1x    frame=11252 fps=363 q=-0.0 size=N/A time=00:07:49.30 bitrate=N/A speed=15.2x    frame=11447 fps=364 q=-0.0 size=N/A time=00:07:57.43 bitrate=N/A speed=15.2x    frame=11641 fps=364 q=-0.0 size=N/A time=00:08:05.52 bitrate=N/A speed=15.2x    frame=11838 fps=364 q=-0.0 size=N/A time=00:08:13.74 bitrate=N/A speed=15.2x    frame=12042 fps=365 q=-0.0 size=N/A time=00:08:22.25 bitrate=N/A speed=15.2x    frame=12240 fps=365 q=-0.0 size=N/A time=00:08:30.51 bitrate=N/A speed=15.2x    frame=12436 fps=365 q=-0.0 size=N/A time=00:08:38.68 bitrate=N/A speed=15.2x    frame=12633 fps=365 q=-0.0 size=N/A time=00:08:46.90 bitrate=N/A speed=15.2x    frame=12839 fps=366 q=-0.0 size=N/A time=00:08:55.49 bitrate=N/A speed=15.3x    frame=13034 fps=366 q=-0.0 size=N/A time=00:09:03.62 bitrate=N/A speed=15.3x    frame=13234 fps=366 q=-0.0 size=N/A time=00:09:11.96 bitrate=N/A speed=15.3x    frame=13431 fps=366 q=-0.0 size=N/A time=00:09:20.18 bitrate=N/A speed=15.3x    frame=13625 fps=367 q=-0.0 size=N/A time=00:09:28.27 bitrate=N/A speed=15.3x    frame=13822 fps=367 q=-0.0 size=N/A time=00:09:36.49 bitrate=N/A speed=15.3x    frame=14019 fps=367 q=-0.0 size=N/A time=00:09:44.70 bitrate=N/A speed=15.3x    frame=14199 fps=367 q=-0.0 size=N/A time=00:09:52.21 bitrate=N/A speed=15.3x    frame=14396 fps=367 q=-0.0 size=N/A time=00:10:00.43 bitrate=N/A speed=15.3x    frame=14587 fps=367 q=-0.0 size=N/A time=00:10:08.39 bitrate=N/A speed=15.3x    frame=14778 fps=367 q=-0.0 size=N/A time=00:10:16.36 bitrate=N/A speed=15.3x    frame=14973 fps=367 q=-0.0 size=N/A time=00:10:24.49 bitrate=N/A speed=15.3x    frame=15144 fps=367 q=-0.0 size=N/A time=00:10:31.63 bitrate=N/A speed=15.3x    frame=15330 fps=367 q=-0.0 size=N/A time=00:10:39.38 bitrate=N/A speed=15.3x    frame=15520 fps=367 q=-0.0 size=N/A time=00:10:47.31 bitrate=N/A speed=15.3x    frame=15721 fps=367 q=-0.0 size=N/A time=00:10:55.69 bitrate=N/A speed=15.3x    frame=15915 fps=367 q=-0.0 size=N/A time=00:11:03.78 bitrate=N/A speed=15.3x    frame=16108 fps=367 q=-0.0 size=N/A time=00:11:11.83 bitrate=N/A speed=15.3x    frame=16302 fps=367 q=-0.0 size=N/A time=00:11:19.92 bitrate=N/A speed=15.3x    frame=16503 fps=367 q=-0.0 size=N/A time=00:11:28.31 bitrate=N/A speed=15.3x    frame=16703 fps=368 q=-0.0 size=N/A time=00:11:36.65 bitrate=N/A speed=15.3x    frame=16896 fps=368 q=-0.0 size=N/A time=00:11:44.70 bitrate=N/A speed=15.3x    frame=17098 fps=368 q=-0.0 size=N/A time=00:11:53.12 bitrate=N/A speed=15.4x    frame=17301 fps=368 q=-0.0 size=N/A time=00:12:01.59 bitrate=N/A speed=15.4x    frame=17494 fps=368 q=-0.0 size=N/A time=00:12:09.64 bitrate=N/A speed=15.4x    frame=17685 fps=368 q=-0.0 size=N/A time=00:12:17.61 bitrate=N/A speed=15.4x    frame=17880 fps=369 q=-0.0 size=N/A time=00:12:25.74 bitrate=N/A speed=15.4x    frame=18081 fps=369 q=-0.0 size=N/A time=00:12:34.12 bitrate=N/A speed=15.4x    frame=18273 fps=369 q=-0.0 size=N/A time=00:12:42.13 bitrate=N/A speed=15.4x    frame=18469 fps=369 q=-0.0 size=N/A time=00:12:50.31 bitrate=N/A speed=15.4x    frame=18660 fps=369 q=-0.0 size=N/A time=00:12:58.27 bitrate=N/A speed=15.4x    frame=18865 fps=369 q=-0.0 size=N/A time=00:13:06.82 bitrate=N/A speed=15.4x    frame=19053 fps=369 q=-0.0 size=N/A time=00:13:14.66 bitrate=N/A speed=15.4x    frame=19232 fps=369 q=-0.0 size=N/A time=00:13:22.13 bitrate=N/A speed=15.4x    frame=19437 fps=369 q=-0.0 size=N/A time=00:13:30.68 bitrate=N/A speed=15.4x    frame=19626 fps=369 q=-0.0 size=N/A time=00:13:38.56 bitrate=N/A speed=15.4x    frame=19822 fps=369 q=-0.0 size=N/A time=00:13:46.74 bitrate=N/A speed=15.4x    frame=20022 fps=370 q=-0.0 size=N/A time=00:13:55.08 bitrate=N/A speed=15.4x    frame=20219 fps=370 q=-0.0 size=N/A time=00:14:03.30 bitrate=N/A speed=15.4x    frame=20415 fps=370 q=-0.0 size=N/A time=00:14:11.47 bitrate=N/A speed=15.4x    frame=20598 fps=370 q=-0.0 size=N/A time=00:14:19.10 bitrate=N/A speed=15.4x    frame=20790 fps=370 q=-0.0 size=N/A time=00:14:27.11 bitrate=N/A speed=15.4x    frame=20988 fps=370 q=-0.0 size=N/A time=00:14:35.37 bitrate=N/A speed=15.4x    frame=21191 fps=370 q=-0.0 size=N/A time=00:14:43.84 bitrate=N/A speed=15.4x    frame=21387 fps=370 q=-0.0 size=N/A time=00:14:52.01 bitrate=N/A speed=15.4x    frame=21582 fps=370 q=-0.0 size=N/A time=00:15:00.14 bitrate=N/A speed=15.4x    frame=21778 fps=370 q=-0.0 size=N/A time=00:15:08.32 bitrate=N/A speed=15.4x    frame=21975 fps=370 q=-0.0 size=N/A time=00:15:16.54 bitrate=N/A speed=15.4x    frame=22168 fps=370 q=-0.0 size=N/A time=00:15:24.59 bitrate=N/A speed=15.4x    frame=22369 fps=370 q=-0.0 size=N/A time=00:15:32.97 bitrate=N/A speed=15.5x    frame=22572 fps=371 q=-0.0 size=N/A time=00:15:41.44 bitrate=N/A speed=15.5x    frame=22758 fps=371 q=-0.0 size=N/A time=00:15:49.19 bitrate=N/A speed=15.5x    frame=22940 fps=370 q=-0.0 size=N/A time=00:15:56.78 bitrate=N/A speed=15.4x    frame=23149 fps=371 q=-0.0 size=N/A time=00:16:05.50 bitrate=N/A speed=15.5x    frame=23338 fps=371 q=-0.0 size=N/A time=00:16:13.38 bitrate=N/A speed=15.5x    frame=23535 fps=371 q=-0.0 size=N/A time=00:16:21.60 bitrate=N/A speed=15.5x    frame=23738 fps=371 q=-0.0 size=N/A time=00:16:30.07 bitrate=N/A speed=15.5x    frame=23932 fps=371 q=-0.0 size=N/A time=00:16:38.16 bitrate=N/A speed=15.5x    frame=24105 fps=371 q=-0.0 size=N/A time=00:16:45.37 bitrate=N/A speed=15.5x    frame=24293 fps=371 q=-0.0 size=N/A time=00:16:53.22 bitrate=N/A speed=15.5x    frame=24487 fps=371 q=-0.0 size=N/A time=00:17:01.31 bitrate=N/A speed=15.5x    frame=24679 fps=371 q=-0.0 size=N/A time=00:17:09.31 bitrate=N/A speed=15.5x    frame=24875 fps=371 q=-0.0 size=N/A time=00:17:17.49 bitrate=N/A speed=15.5x    frame=25069 fps=371 q=-0.0 size=N/A time=00:17:25.58 bitrate=N/A speed=15.5x    frame=25272 fps=371 q=-0.0 size=N/A time=00:17:34.05 bitrate=N/A speed=15.5x    frame=25461 fps=371 q=-0.0 size=N/A time=00:17:41.93 bitrate=N/A speed=15.5x    frame=25656 fps=371 q=-0.0 size=N/A time=00:17:50.06 bitrate=N/A speed=15.5x    frame=25852 fps=371 q=-0.0 size=N/A time=00:17:58.24 bitrate=N/A speed=15.5x    frame=26060 fps=371 q=-0.0 size=N/A time=00:18:06.91 bitrate=N/A speed=15.5x    frame=26249 fps=371 q=-0.0 size=N/A time=00:18:14.80 bitrate=N/A speed=15.5x    frame=26446 fps=371 q=-0.0 size=N/A time=00:18:23.01 bitrate=N/A speed=15.5x    frame=26648 fps=371 q=-0.0 size=N/A time=00:18:31.44 bitrate=N/A speed=15.5x    frame=26840 fps=371 q=-0.0 size=N/A time=00:18:39.45 bitrate=N/A speed=15.5x    frame=27025 fps=371 q=-0.0 size=N/A time=00:18:47.16 bitrate=N/A speed=15.5x    frame=27209 fps=371 q=-0.0 size=N/A time=00:18:54.84 bitrate=N/A speed=15.5x    frame=27399 fps=371 q=-0.0 size=N/A time=00:19:02.76 bitrate=N/A speed=15.5x    frame=27589 fps=371 q=-0.0 size=N/A time=00:19:10.69 bitrate=N/A speed=15.5x    frame=27775 fps=371 q=-0.0 size=N/A time=00:19:18.44 bitrate=N/A speed=15.5x    frame=27967 fps=371 q=-0.0 size=N/A time=00:19:26.45 bitrate=N/A speed=15.5x    frame=28163 fps=371 q=-0.0 size=N/A time=00:19:34.63 bitrate=N/A speed=15.5x    frame=28358 fps=371 q=-0.0 size=N/A time=00:19:42.76 bitrate=N/A speed=15.5x    frame=28546 fps=371 q=-0.0 size=N/A time=00:19:50.60 bitrate=N/A speed=15.5x    frame=28727 fps=371 q=-0.0 size=N/A time=00:19:58.15 bitrate=N/A speed=15.5x    frame=28913 fps=371 q=-0.0 size=N/A time=00:20:05.91 bitrate=N/A speed=15.5x    frame=29087 fps=371 q=-0.0 size=N/A time=00:20:13.17 bitrate=N/A speed=15.5x    frame=29271 fps=371 q=-0.0 size=N/A time=00:20:20.84 bitrate=N/A speed=15.5x    frame=29451 fps=371 q=-0.0 size=N/A time=00:20:28.35 bitrate=N/A speed=15.5x    frame=29633 fps=370 q=-0.0 size=N/A time=00:20:35.94 bitrate=N/A speed=15.4x    frame=29808 fps=370 q=-0.0 size=N/A time=00:20:43.24 bitrate=N/A speed=15.4x    frame=29985 fps=370 q=-0.0 size=N/A time=00:20:50.62 bitrate=N/A speed=15.4x    frame=30156 fps=370 q=-0.0 size=N/A time=00:20:57.75 bitrate=N/A speed=15.4x    frame=30344 fps=370 q=-0.0 size=N/A time=00:21:05.59 bitrate=N/A speed=15.4x    frame=30540 fps=370 q=-0.0 size=N/A time=00:21:13.77 bitrate=N/A speed=15.4x    frame=30729 fps=370 q=-0.0 size=N/A time=00:21:21.65 bitrate=N/A speed=15.4x    frame=30934 fps=370 q=-0.0 size=N/A time=00:21:30.20 bitrate=N/A speed=15.4x    frame=31119 fps=370 q=-0.0 size=N/A time=00:21:37.92 bitrate=N/A speed=15.4x    frame=31314 fps=370 q=-0.0 size=N/A time=00:21:46.05 bitrate=N/A speed=15.4x    frame=31505 fps=370 q=-0.0 size=N/A time=00:21:54.02 bitrate=N/A speed=15.4x    frame=31700 fps=370 q=-0.0 size=N/A time=00:22:02.15 bitrate=N/A speed=15.4x    frame=31877 fps=370 q=-0.0 size=N/A time=00:22:09.53 bitrate=N/A speed=15.4x    frame=32070 fps=370 q=-0.0 size=N/A time=00:22:17.58 bitrate=N/A speed=15.4x    frame=32264 fps=370 q=-0.0 size=N/A time=00:22:25.67 bitrate=N/A speed=15.4x    frame=32455 fps=370 q=-0.0 size=N/A time=00:22:33.64 bitrate=N/A speed=15.4x    frame=32638 fps=370 q=-0.0 size=N/A time=00:22:41.27 bitrate=N/A speed=15.4x    frame=32797 fps=369 q=-0.0 size=N/A time=00:22:47.90 bitrate=N/A speed=15.4x    frame=32965 fps=369 q=-0.0 size=N/A time=00:22:54.91 bitrate=N/A speed=15.4x    frame=33143 fps=369 q=-0.0 size=N/A time=00:23:02.33 bitrate=N/A speed=15.4x    frame=33330 fps=369 q=-0.0 size=N/A time=00:23:10.13 bitrate=N/A speed=15.4x    frame=33502 fps=369 q=-0.0 size=N/A time=00:23:17.31 bitrate=N/A speed=15.4x    frame=33656 fps=368 q=-0.0 size=N/A time=00:23:23.73 bitrate=N/A speed=15.4x    frame=33792 fps=368 q=-0.0 size=N/A time=00:23:29.40 bitrate=N/A speed=15.3x    frame=33935 fps=367 q=-0.0 size=N/A time=00:23:35.37 bitrate=N/A speed=15.3x    frame=34113 fps=367 q=-0.0 size=N/A time=00:23:42.79 bitrate=N/A speed=15.3x    frame=34272 fps=367 q=-0.0 size=N/A time=00:23:49.42 bitrate=N/A speed=15.3x    frame=34404 fps=366 q=-0.0 size=N/A time=00:23:54.93 bitrate=N/A speed=15.3x    frame=34583 fps=366 q=-0.0 size=N/A time=00:24:02.39 bitrate=N/A speed=15.3x    [Parsed_ssim_16 @ 000002006d6075c0] SSIM Y:0.994162 (22.337227) U:0.993977 (22.202011) V:0.993585 (21.928277) All:0.994035 (22.243877)
[out#0/null @ 0000020060448a00] video:14903KiB audio:271276KiB subtitle:0KiB other streams:0KiB global headers:0KiB muxing overhead: unknown
frame=34683 fps=366 q=-0.0 Lsize=N/A time=00:24:06.57 bitrate=N/A speed=15.3x    
